<svg width="21" height="20" viewBox="0 0 21 20" fill="none" xmlns="http://www.w3.org/2000/svg">
<path id="github" d="M7.31445 16.104C7.31445 16.1867 7.22171 16.2529 7.10478 16.2529C6.97171 16.2653 6.87897 16.1991 6.87897 16.104C6.87897 16.0213 6.97171 15.9551 7.08865 15.9551C7.20962 15.9427 7.31445 16.0089 7.31445 16.104ZM6.06042 15.9179C6.0322 16.0006 6.11284 16.0957 6.23381 16.1205C6.33865 16.1619 6.45962 16.1205 6.48381 16.0378C6.508 15.9551 6.43139 15.86 6.31042 15.8228C6.20558 15.7938 6.08865 15.8352 6.06042 15.9179ZM7.84268 15.8476C7.72575 15.8765 7.6451 15.9551 7.6572 16.0502C7.66929 16.1329 7.77413 16.1867 7.8951 16.1577C8.01204 16.1288 8.09268 16.0502 8.08058 15.9675C8.06849 15.8889 7.95962 15.8352 7.84268 15.8476ZM10.4959 0C4.90316 0 0.624939 4.35477 0.624939 10.0908C0.624939 14.6772 3.43946 18.6019 7.45962 19.9832C7.97575 20.0783 8.1572 19.7516 8.1572 19.4827C8.1572 19.2263 8.1451 17.812 8.1451 16.9435C8.1451 16.9435 5.32252 17.5638 4.72978 15.7111C4.72978 15.7111 4.2701 14.5076 3.60881 14.1975C3.60881 14.1975 2.68542 13.5482 3.67333 13.5606C3.67333 13.5606 4.67736 13.6433 5.22978 14.6276C6.11284 16.2239 7.59268 15.7649 8.16929 15.4919C8.26204 14.8302 8.52413 14.3712 8.81446 14.0982C6.56042 13.8418 4.28623 13.5068 4.28623 9.52839C4.28623 8.3911 4.59268 7.82039 5.23784 7.09253C5.133 6.82372 4.79026 5.71538 5.34268 4.28447C6.18542 4.01565 8.12494 5.40108 8.12494 5.40108C8.93139 5.16948 9.79833 5.04955 10.6572 5.04955C11.5161 5.04955 12.383 5.16948 13.1895 5.40108C13.1895 5.40108 15.129 4.01152 15.9717 4.28447C16.5241 5.71951 16.1814 6.82372 16.0766 7.09253C16.7217 7.82453 17.1169 8.39524 17.1169 9.52839C17.1169 13.5192 14.7419 13.8377 12.4878 14.0982C12.8588 14.4249 13.1733 15.0453 13.1733 16.0171C13.1733 17.4108 13.1612 19.1354 13.1612 19.4745C13.1612 19.7433 13.3467 20.07 13.8588 19.9749C17.8911 18.6019 20.6249 14.6772 20.6249 10.0908C20.6249 4.35477 16.0886 0 10.4959 0ZM4.54429 14.2636C4.49187 14.305 4.50397 14.4001 4.57252 14.4787C4.63704 14.5449 4.72978 14.5738 4.7822 14.52C4.83462 14.4787 4.82252 14.3836 4.75397 14.305C4.68946 14.2388 4.59671 14.2099 4.54429 14.2636ZM4.10881 13.9287C4.08058 13.9824 4.12091 14.0486 4.20155 14.0899C4.26607 14.1313 4.34671 14.1189 4.37494 14.061C4.40316 14.0072 4.36284 13.9411 4.2822 13.8997C4.20155 13.8749 4.13704 13.8873 4.10881 13.9287ZM5.41526 15.4009C5.35075 15.4547 5.37494 15.5788 5.46768 15.6573C5.56042 15.7524 5.67736 15.7649 5.72978 15.6987C5.7822 15.6449 5.758 15.5209 5.67736 15.4423C5.58865 15.3472 5.46768 15.3348 5.41526 15.4009ZM4.95558 14.793C4.89107 14.8343 4.89107 14.9419 4.95558 15.037C5.0201 15.1321 5.12897 15.1735 5.18139 15.1321C5.24591 15.0783 5.24591 14.9708 5.18139 14.8757C5.12494 14.7806 5.0201 14.7392 4.95558 14.793Z" fill="black"/>
</svg>
