<svg width="21" height="20" viewBox="0 0 21 20" fill="none" xmlns="http://www.w3.org/2000/svg">
<path id="linkedin" d="M5.13324 20H0.957622V6.64702H5.13324V20ZM3.04318 4.82555C1.70796 4.82555 0.624939 3.72732 0.624939 2.40139C0.624939 1.7645 0.879717 1.1537 1.33323 0.703352C1.78673 0.253003 2.40182 0 3.04318 0C3.68454 0 4.29963 0.253003 4.75314 0.703352C5.20665 1.1537 5.46143 1.7645 5.46143 2.40139C5.46143 3.72732 4.37796 4.82555 3.04318 4.82555ZM20.7612 20H16.5946V13.4999C16.5946 11.9507 16.5631 9.96406 14.4236 9.96406C12.2526 9.96406 11.92 11.6471 11.92 13.3882V20H7.74885V6.64702H11.7536V8.46849H11.8121C12.3695 7.41936 13.7313 6.31219 15.7629 6.31219C19.9889 6.31219 20.7657 9.07565 20.7657 12.665V20H20.7612Z" fill="black"/>
</svg>
