<svg width="472" height="350" viewBox="0 0 472 350" fill="none" xmlns="http://www.w3.org/2000/svg">
<g id="SVG-AcceptForm" clip-path="url(#clip0)">
<g id="tick-box">
<path id="Vector" d="M444.029 315.844C439.636 315.844 435.424 317.588 432.318 320.693C429.212 323.797 427.467 328.008 427.467 332.398C427.467 336.789 429.212 340.999 432.318 344.104C435.424 347.209 439.636 348.953 444.029 348.953H444.029C448.421 348.953 452.634 347.209 455.74 344.104C458.846 341 460.591 336.789 460.591 332.398C460.591 328.008 458.846 323.797 455.74 320.693C452.634 317.588 448.421 315.844 444.029 315.844Z" fill="#CCCCCC"/>
<path id="Path 395" d="M442.457 339.273C442.021 339.274 441.597 339.133 441.248 338.872L441.227 338.856L436.672 335.373C436.461 335.212 436.284 335.01 436.151 334.78C436.018 334.55 435.931 334.296 435.896 334.032C435.861 333.769 435.879 333.501 435.947 333.244C436.016 332.988 436.135 332.747 436.296 332.536C436.458 332.325 436.66 332.148 436.89 332.015C437.12 331.882 437.375 331.796 437.638 331.761C437.902 331.727 438.17 331.744 438.426 331.813C438.683 331.882 438.924 332 439.135 332.162L442.085 334.423L449.056 325.333C449.218 325.122 449.419 324.945 449.649 324.812C449.879 324.679 450.133 324.593 450.397 324.558C450.66 324.524 450.928 324.541 451.184 324.61C451.441 324.678 451.682 324.797 451.893 324.958L451.893 324.959L451.85 325.019L451.894 324.959C452.32 325.285 452.598 325.768 452.668 326.299C452.738 326.831 452.595 327.369 452.269 327.794L444.069 338.482C443.879 338.728 443.635 338.928 443.356 339.064C443.077 339.201 442.77 339.272 442.459 339.271L442.457 339.273Z" fill="white"/>
</g>
<g id="leg">
<path id="Vector_2" d="M407.969 342.332L400.128 342.332L396.399 312.099L407.972 312.101L407.969 342.332Z" fill="#FFB8B8"/>
<path id="Vector_3" d="M394.527 340.092H409.65V349.609H385.005C385.005 348.36 385.251 347.122 385.73 345.967C386.208 344.813 386.91 343.763 387.794 342.88C388.678 341.996 389.728 341.295 390.883 340.816C392.038 340.338 393.276 340.092 394.527 340.092Z" fill="#2F2E41"/>
<path id="Vector_4" d="M376.76 342.332L368.919 342.332L365.19 312.099L376.763 312.101L376.76 342.332Z" fill="#FFB8B8"/>
<path id="Vector_5" d="M363.318 340.092H378.441V349.609H353.796C353.796 348.36 354.042 347.122 354.521 345.967C354.999 344.813 355.701 343.763 356.585 342.88C357.469 341.996 358.519 341.295 359.674 340.816C360.829 340.338 362.067 340.092 363.318 340.092Z" fill="#2F2E41"/>
</g>
<g id="hand">
<path id="Vector_6" d="M414.01 237.812C413.379 237.115 412.909 236.289 412.632 235.391C412.355 234.492 412.278 233.544 412.407 232.613C412.537 231.683 412.868 230.791 413.38 230.002C413.891 229.214 414.569 228.546 415.366 228.048L412.937 213.558L421.386 209.936L424.528 230.445C425.278 231.839 425.489 233.459 425.123 234.999C424.757 236.538 423.839 237.89 422.543 238.798C421.246 239.706 419.662 240.107 418.089 239.926C416.516 239.744 415.065 238.992 414.01 237.812V237.812Z" fill="#FFB8B8"/>
<path id="Vector_7" d="M347.862 230.966C348.6 230.383 349.2 229.645 349.622 228.805C350.044 227.965 350.276 227.043 350.302 226.103C350.329 225.164 350.149 224.23 349.775 223.368C349.401 222.505 348.843 221.735 348.139 221.112L352.929 207.223L345.195 202.255L338.706 221.963C337.737 223.214 337.26 224.777 337.367 226.356C337.473 227.935 338.155 229.42 339.284 230.529C340.412 231.639 341.909 232.296 343.49 232.377C345.071 232.457 346.627 231.955 347.862 230.966V230.966Z" fill="#FFB8B8"/>
</g>
<g id="head">
<path id="face" d="M388.023 128.647C397.327 128.647 404.869 121.108 404.869 111.808C404.869 102.508 397.327 94.9687 388.023 94.9687C378.718 94.9687 371.176 102.508 371.176 111.808C371.176 121.108 378.718 128.647 388.023 128.647Z" fill="#FFB8B8"/>
<path id="hair" d="M397.529 125.929L388.169 126.096C387.194 126.115 386.228 125.905 385.349 125.482C384.471 125.06 383.703 124.437 383.11 123.664C382.516 122.891 382.112 121.989 381.931 121.031C381.75 120.073 381.797 119.086 382.067 118.15C382.267 117.473 382.418 116.783 382.517 116.084C382.622 115.322 382.643 114.551 382.578 113.785C382.519 113.018 382.201 112.293 381.675 111.731C381.15 111.168 380.449 110.8 379.687 110.688C378.926 110.576 378.148 110.725 377.483 111.113C376.817 111.5 376.303 112.102 376.025 112.819V112.819C374.451 112.842 371.098 112.329 369.524 112.351C366.182 103.788 373.465 92.5833 381.304 88.3747C389.296 84.0842 399.669 88.4492 402.733 97.3915C406.984 97.4679 410.439 101.659 410.987 106.377C411.535 111.095 409.593 116.022 406.622 119.638C403.651 123.254 399.751 125.89 397.529 125.929Z" fill="#2F2E41"/>
</g>
<g id="pant">
<path id="pant_2" d="M366.761 339.51C366.002 339.506 365.272 339.223 364.708 338.717C364.144 338.21 363.785 337.514 363.701 336.761L360.227 220.047L403.98 223.16L404.014 223.441C413.901 306.168 410.521 334.805 410.486 335.084C410.462 335.507 410.35 335.921 410.159 336.299C409.967 336.678 409.7 337.013 409.373 337.283C409.047 337.553 408.668 337.754 408.26 337.871C407.853 337.988 407.425 338.021 407.005 337.965L397.335 338.197C396.602 338.114 395.923 337.772 395.421 337.231C394.919 336.691 394.628 335.989 394.599 335.252L385.565 250.717C385.509 250.498 385.378 250.305 385.194 250.172C385.01 250.04 384.785 249.977 384.559 249.993C384.327 249.992 384.101 250.073 383.921 250.22C383.741 250.367 383.618 250.572 383.572 250.8L380.082 335.612C380.119 336.399 379.852 337.17 379.336 337.766C378.82 338.362 378.095 338.737 377.31 338.814L367.067 339.494C366.966 339.505 366.863 339.51 366.761 339.51V339.51Z" fill="#2F2E41"/>
</g>
<g id="shirt">
<path id="Vector_8" d="M384.916 233.993C384.654 233.993 384.393 233.989 384.13 233.981C371.55 233.602 361.707 224.088 358.99 221.181C358.644 220.81 358.395 220.36 358.266 219.869C358.136 219.379 358.13 218.865 358.248 218.372L365.506 187.681L363.581 161C363.278 157.297 363.764 153.572 365.006 150.07C366.248 146.568 368.218 143.369 370.786 140.683C372.927 138.423 375.528 136.65 378.414 135.483C381.3 134.316 384.403 133.782 387.513 133.919C399.76 134.503 409.422 145.445 409.51 158.829C409.645 179.558 409.035 180.982 408.834 181.45C402.722 195.708 406.06 215.723 407.229 221.518C407.333 222.035 407.304 222.57 407.143 223.072C406.983 223.574 406.697 224.028 406.312 224.388C399.59 230.764 392.394 233.992 384.916 233.993Z" fill="#6C63FF"/>
<path id="Vector_9" d="M416.512 226.191C415.814 226.191 415.137 225.954 414.591 225.518C414.045 225.083 413.663 224.476 413.508 223.796L406.02 191.19L395.984 153.923C395.556 152.343 395.495 150.685 395.808 149.078C396.12 147.471 396.797 145.957 397.786 144.652C398.685 143.429 399.92 142.493 401.34 141.956C402.76 141.419 404.305 141.305 405.789 141.628C409.032 142.366 411.554 145.08 412.37 148.712L420.57 185.206L424.66 222.188C424.748 222.999 424.511 223.812 424.002 224.45C423.493 225.087 422.752 225.498 421.942 225.592L416.866 226.171C416.749 226.184 416.63 226.191 416.512 226.191V226.191Z" fill="#6C63FF"/>
<path id="Vector_10" d="M347.341 220.575C347.052 220.575 346.765 220.534 346.487 220.454L341.577 219.045C340.793 218.818 340.13 218.291 339.733 217.578C339.337 216.865 339.238 216.024 339.459 215.239L349.592 179.477L363.724 144.802C365.129 141.355 368.065 139.094 371.385 138.902C372.902 138.828 374.407 139.195 375.72 139.959C377.032 140.723 378.094 141.851 378.778 143.206V143.206C379.538 144.656 379.955 146.261 379.998 147.898C380.04 149.535 379.707 151.159 379.023 152.647L362.961 187.757L350.192 218.666C349.959 219.231 349.564 219.713 349.056 220.053C348.549 220.393 347.952 220.574 347.341 220.575V220.575Z" fill="#6C63FF"/>
</g>
<g id="tick-box_2">
<path id="Vector_11" d="M200.972 35.6513H17.8337C13.1039 35.6513 8.56784 33.7733 5.22337 30.4303C1.87889 27.0873 0 22.5533 0 17.8257C0 13.098 1.87889 8.56397 5.22337 5.22101C8.56784 1.87805 13.1039 0 17.8337 0H200.972C205.702 0 210.238 1.87805 213.583 5.22101C216.927 8.56397 218.806 13.098 218.806 17.8257C218.806 22.5533 216.927 27.0873 213.583 30.4303C210.238 33.7733 205.702 35.6513 200.972 35.6513V35.6513Z" fill="#E6E6E6"/>
<path id="Vector_12" d="M17.8337 5.82762C14.6502 5.82762 11.5971 7.09169 9.34601 9.34176C7.09492 11.5918 5.83026 14.6436 5.83026 17.8257C5.83026 21.0077 7.09492 24.0595 9.34601 26.3096C11.5971 28.5596 14.6502 29.8237 17.8337 29.8237H200.972C204.156 29.8237 207.209 28.5596 209.46 26.3096C211.711 24.0595 212.976 21.0077 212.976 17.8257C212.976 14.6436 211.711 11.5918 209.46 9.34176C207.209 7.09169 204.156 5.82762 200.972 5.82762H17.8337Z" fill="white"/>
<g id="ticked">
<path id="Vector_13" d="M265.691 1.15257C261.299 1.15256 257.086 2.89665 253.98 6.00118C250.874 9.10571 249.13 13.3164 249.13 17.7068C249.13 22.0973 250.874 26.308 253.98 29.4125C257.086 32.5171 261.299 34.2612 265.691 34.2612H265.691C270.084 34.2612 274.296 32.5171 277.402 29.4126C280.508 26.308 282.253 22.0974 282.253 17.7069C282.253 13.3164 280.508 9.10576 277.402 6.00122C274.296 2.89668 270.084 1.15257 265.691 1.15257V1.15257Z" fill="#6C63FF"/>
<path id="Path 395_2" d="M264.12 24.582C263.684 24.5827 263.26 24.4418 262.911 24.1803L262.889 24.1641L258.335 20.6816C258.124 20.52 257.946 20.3185 257.813 20.0884C257.68 19.8584 257.594 19.6044 257.559 19.3409C257.524 19.0775 257.541 18.8097 257.61 18.553C257.679 18.2963 257.797 18.0556 257.959 17.8447C258.121 17.6338 258.323 17.4568 258.553 17.3239C258.783 17.1909 259.037 17.1046 259.301 17.0698C259.564 17.0351 259.832 17.0526 260.089 17.1214C260.346 17.1901 260.587 17.3088 260.797 17.4705L263.747 19.7317L270.719 10.6413C270.88 10.4305 271.082 10.2536 271.312 10.1208C271.542 9.98788 271.796 9.90158 272.059 9.86681C272.323 9.83203 272.59 9.84946 272.847 9.91808C273.104 9.98671 273.344 10.1052 273.555 10.2668L273.556 10.2672L273.512 10.3272L273.557 10.2672C273.982 10.594 274.261 11.0761 274.331 11.6078C274.401 12.1394 274.257 12.6772 273.931 13.103L265.732 23.7906C265.542 24.0369 265.298 24.2362 265.019 24.373C264.74 24.5098 264.433 24.5805 264.122 24.5796L264.12 24.582Z" fill="white"/>
</g>
</g>
<g id="tick-box_3">
<path id="Vector_14" d="M200.972 95.9843H17.8337C13.1039 95.9843 8.56784 94.1063 5.22337 90.7633C1.87889 87.4204 0 82.8863 0 78.1587C0 73.431 1.87889 68.897 5.22337 65.554C8.56784 62.2111 13.1039 60.333 17.8337 60.333H200.972C205.702 60.333 210.238 62.2111 213.583 65.554C216.927 68.897 218.806 73.431 218.806 78.1587C218.806 82.8863 216.927 87.4204 213.583 90.7633C210.238 94.1063 205.702 95.9843 200.972 95.9843V95.9843Z" fill="#E6E6E6"/>
<path id="Vector_15" d="M17.8337 66.1606C14.6502 66.1606 11.5971 67.4247 9.34601 69.6748C7.09492 71.9248 5.83026 74.9766 5.83026 78.1587C5.83026 81.3407 7.09492 84.3925 9.34601 86.6426C11.5971 88.8926 14.6502 90.1567 17.8337 90.1567H200.972C204.156 90.1567 207.209 88.8926 209.46 86.6426C211.711 84.3925 212.976 81.3407 212.976 78.1587C212.976 74.9766 211.711 71.9248 209.46 69.6748C207.209 67.4247 204.156 66.1606 200.972 66.1606H17.8337Z" fill="white"/>
<path id="Radio" d="M265.691 61.4856C261.299 61.4855 257.086 63.2297 253.98 66.3342C250.874 69.4387 249.13 73.6494 249.13 78.0398C249.13 82.4303 250.874 86.641 253.98 89.7455C257.086 92.8501 261.299 94.5942 265.691 94.5942H265.691C270.084 94.5942 274.296 92.8501 277.402 89.7456C280.508 86.641 282.253 82.4304 282.253 78.0399C282.253 73.6494 280.508 69.4388 277.402 66.3342C274.296 63.2297 270.084 61.4856 265.691 61.4856V61.4856Z" fill="#6C63FF"/>
<path id="tick" d="M264.12 84.915C263.684 84.9158 263.26 84.7748 262.911 84.5133L262.889 84.4971L258.335 81.0146C258.124 80.853 257.946 80.6515 257.813 80.4214C257.68 80.1914 257.594 79.9374 257.559 79.6739C257.524 79.4105 257.541 79.1427 257.61 78.886C257.679 78.6293 257.797 78.3886 257.959 78.1777C258.121 77.9668 258.323 77.7898 258.553 77.6569C258.783 77.5239 259.037 77.4376 259.301 77.4029C259.564 77.3681 259.832 77.3856 260.089 77.4544C260.346 77.5231 260.587 77.6418 260.797 77.8035L263.747 80.0648L270.719 70.9743C270.88 70.7635 271.082 70.5866 271.312 70.4538C271.542 70.3209 271.796 70.2346 272.059 70.1998C272.323 70.165 272.59 70.1825 272.847 70.2511C273.104 70.3197 273.344 70.4382 273.555 70.5998L273.556 70.6002L273.512 70.6603L273.557 70.6002C273.982 70.927 274.261 71.4091 274.331 71.9408C274.401 72.4724 274.257 73.0102 273.931 73.4361L265.732 84.1237C265.542 84.3699 265.298 84.5692 265.019 84.706C264.74 84.8428 264.433 84.9135 264.122 84.9126L264.12 84.915Z" fill="white"/>
</g>
<g id="tick-box_4">
<path id="Vector_16" d="M200.972 156.651H17.8337C13.1039 156.651 8.56784 154.773 5.22337 151.43C1.87889 148.087 0 143.553 0 138.826C0 134.098 1.87889 129.564 5.22337 126.221C8.56784 122.878 13.1039 121 17.8337 121H200.972C205.702 121 210.238 122.878 213.583 126.221C216.927 129.564 218.806 134.098 218.806 138.826C218.806 143.553 216.927 148.087 213.583 151.43C210.238 154.773 205.702 156.651 200.972 156.651V156.651Z" fill="#E6E6E6"/>
<path id="Vector_17" d="M17.8337 126.828C14.6502 126.828 11.5971 128.092 9.34601 130.342C7.09492 132.592 5.83026 135.644 5.83026 138.826C5.83026 142.008 7.09492 145.059 9.34601 147.31C11.5971 149.56 14.6502 150.824 17.8337 150.824H200.972C204.156 150.824 207.209 149.56 209.46 147.31C211.711 145.059 212.976 142.008 212.976 138.826C212.976 135.644 211.711 132.592 209.46 130.342C207.209 128.092 204.156 126.828 200.972 126.828H17.8337Z" fill="white"/>
<path id="Radio_2" d="M265.691 122.153C261.299 122.153 257.086 123.897 253.98 127.001C250.874 130.106 249.13 134.316 249.13 138.707C249.13 143.097 250.874 147.308 253.98 150.413C257.086 153.517 261.299 155.261 265.691 155.261H265.691C270.084 155.261 274.296 153.517 277.402 150.413C280.508 147.308 282.253 143.097 282.253 138.707C282.253 134.316 280.508 130.106 277.402 127.001C274.296 123.897 270.084 122.153 265.691 122.153V122.153Z" fill="#6C63FF"/>
<path id="tick_2" d="M264.12 145.582C263.684 145.583 263.26 145.442 262.911 145.18L262.889 145.164L258.335 141.682C258.124 141.52 257.946 141.318 257.813 141.088C257.68 140.858 257.594 140.604 257.559 140.341C257.524 140.077 257.541 139.81 257.61 139.553C257.679 139.296 257.797 139.056 257.959 138.845C258.121 138.634 258.323 138.457 258.553 138.324C258.783 138.191 259.037 138.105 259.301 138.07C259.564 138.035 259.832 138.053 260.089 138.121C260.346 138.19 260.587 138.309 260.797 138.471L263.747 140.732L270.719 131.641C270.88 131.431 271.082 131.254 271.312 131.121C271.542 130.988 271.796 130.902 272.059 130.867C272.323 130.832 272.59 130.849 272.847 130.918C273.104 130.987 273.344 131.105 273.555 131.267L273.556 131.267L273.512 131.327L273.557 131.267C273.982 131.594 274.261 132.076 274.331 132.608C274.401 133.139 274.257 133.677 273.931 134.103L265.732 144.791C265.542 145.037 265.298 145.236 265.019 145.373C264.74 145.51 264.433 145.581 264.122 145.58L264.12 145.582Z" fill="white"/>
</g>
<path id="ground" d="M471.314 350H327.958C327.776 350 327.602 349.928 327.473 349.799C327.345 349.671 327.272 349.496 327.272 349.314C327.272 349.133 327.345 348.958 327.473 348.83C327.602 348.701 327.776 348.629 327.958 348.629H471.314C471.496 348.629 471.67 348.701 471.799 348.83C471.928 348.958 472 349.133 472 349.314C472 349.496 471.928 349.671 471.799 349.799C471.67 349.928 471.496 350 471.314 350Z" fill="#CCCCCC"/>
</g>
<defs>
<clipPath id="clip0">
<rect width="472" height="350" fill="white"/>
</clipPath>
</defs>
</svg>
